<?xml version="1.0" encoding="UTF-8"?>
<!-- Generator: Adobe Illustrator 27.0.1, SVG Export Plug-In . SVG Version: 6.00 Build 0)  -->
<svg version="1.1" id="Слой_1" xmlns="http://www.w3.org/2000/svg" xmlns:xlink="http://www.w3.org/1999/xlink" x="0px" y="0px" viewBox="0 0 144 144" style="enable-background:new 0 0 144 144;" xml:space="preserve">
<style type="text/css">
	.st0{fill:#C4D90B;}
	.st1{fill:#FFFFFF;}
	.st2{fill:#00C3FF;}
</style>
<g>
	<path class="st0" d="M72,144c39.8,0,72-32.2,72-72S111.8,0,72,0C32.2,0,0,32.2,0,72S32.2,144,72,144z"/>
	<g>
		<path class="st1" d="M79.2,27.5c-21.8-0.4-37.7,13.4-38.4,35c-0.7,19.9,15.8,31.9,35.5,32.7c22.3,0.9,30.6-21.7,31-39.5    C107.7,39.5,95.3,27.8,79.2,27.5z"/>
		<path class="st1" d="M91.3,111.7c-0.3-0.4-0.6-0.7-1.1-1c-0.4-0.3-0.9-0.4-1.4-0.5s-1-0.1-1.5,0.1c-4.2,0.9-8.5,1.2-12.7,1    c-15-0.6-27.8-6.4-34.3-15.5c-0.4-0.6-1-1.1-1.8-1.2c0.4-0.1,0.8-0.1,1.1-0.1c0.6,0,1.2-0.2,1.6-0.7c0.4-0.4,0.7-1,0.7-1.6    c0-0.6-0.2-1.2-0.7-1.6c-0.4-0.4-1-0.7-1.6-0.7c-2.7,0-5.3,1.1-7.2,3c-1.9,1.9-3,4.5-3,7.2c0,0.6,0.2,1.2,0.7,1.6s1,0.7,1.6,0.7    c0.6,0,1.2-0.2,1.6-0.7s0.7-1,0.7-1.6v-0.4c0.1,0.1,0.1,0.3,0.2,0.4c8,11.2,22.5,18,40.1,18.6h2.4c4.1,0,8.2-0.4,12.2-1.2    c0.5-0.1,0.9-0.3,1.3-0.5c0.4-0.3,0.7-0.6,1-1c0.3-0.4,0.4-0.9,0.5-1.3c0.1-0.5,0-1-0.1-1.4C91.7,112.5,91.6,112.1,91.3,111.7z"/>
	</g>
	<path class="st2" d="M96.3,52.4c3.2,8.2,0.1,18-7.2,20.6c-5.8,2.2-16-0.7-18.6-8.6c-0.6-2-0.9-4-0.7-6.1c0.2-2.1,0.8-4,1.8-5.8   c1-1.8,2.4-3.4,4-4.6c1.6-1.2,3.5-2.1,5.5-2.6C92.6,42.6,95.8,51.2,96.3,52.4z"/>
</g>
</svg>