<?xml version="1.0" encoding="UTF-8" standalone="no"?>
<!-- Created with Inkscape (http://www.inkscape.org/) -->

<svg
   width="32"
   height="32.860001"
   id="svg2"
   sodipodi:version="0.32"
   inkscape:version="1.4.1 (93de688d07, 2025-03-30)"
   version="1.0"
   sodipodi:docname="saucony_black.svg.svg"
   inkscape:output_extension="org.inkscape.output.svg.inkscape"
   xmlns:inkscape="http://www.inkscape.org/namespaces/inkscape"
   xmlns:sodipodi="http://sodipodi.sourceforge.net/DTD/sodipodi-0.dtd"
   xmlns="http://www.w3.org/2000/svg"
   xmlns:svg="http://www.w3.org/2000/svg"
   xmlns:rdf="http://www.w3.org/1999/02/22-rdf-syntax-ns#"
   xmlns:cc="http://creativecommons.org/ns#"
   xmlns:dc="http://purl.org/dc/elements/1.1/">
  <defs
     id="defs4">
    <inkscape:perspective
       sodipodi:type="inkscape:persp3d"
       inkscape:vp_x="0 : 444.18109 : 1"
       inkscape:vp_y="0 : 1000 : 0"
       inkscape:vp_z="744.09448 : 444.18109 : 1"
       inkscape:persp3d-origin="372.04724 : 268.78739 : 1"
       id="perspective10" />
    <clipPath
       id="clipPath2420"
       clipPathUnits="userSpaceOnUse">
      <path
         id="path2422"
         d="M 4256.72,2.08203 V 7014.58 H 693.277 V 2.08203 Z" />
    </clipPath>
    <inkscape:perspective
       id="perspective2410"
       inkscape:persp3d-origin="372.04724 : 268.78739 : 1"
       inkscape:vp_z="744.09448 : 444.18109 : 1"
       inkscape:vp_y="0 : 1000 : 0"
       inkscape:vp_x="0 : 444.18109 : 1"
       sodipodi:type="inkscape:persp3d" />
  </defs>
  <sodipodi:namedview
     id="base"
     pagecolor="#ffffff"
     bordercolor="#666666"
     borderopacity="1.0"
     gridtolerance="10000"
     guidetolerance="10"
     objecttolerance="10"
     inkscape:pageopacity="0.0"
     inkscape:pageshadow="2"
     inkscape:zoom="13.45"
     inkscape:cx="32.490707"
     inkscape:cy="25.873607"
     inkscape:document-units="px"
     inkscape:current-layer="g2514"
     showgrid="false"
     inkscape:window-width="1898"
     inkscape:window-height="1010"
     inkscape:window-x="0"
     inkscape:window-y="0"
     inkscape:showpageshadow="2"
     inkscape:pagecheckerboard="0"
     inkscape:deskcolor="#d1d1d1"
     inkscape:window-maximized="1" />
  <metadata
     id="metadata7">
    <rdf:RDF>
      <cc:Work
         rdf:about="">
        <dc:format>image/svg+xml</dc:format>
        <dc:type
           rdf:resource="http://purl.org/dc/dcmitype/StillImage" />
      </cc:Work>
    </rdf:RDF>
  </metadata>
  <g
     inkscape:label="Layer 1"
     inkscape:groupmode="layer"
     id="layer1"
     transform="translate(-218.327,-514.267)">
    <g
       id="g2514"
       transform="matrix(0.399918,0,0,0.399918,251.565,425.801)">
      <path
         d="m 22.621163,292.52987 h -0.0246"
         style="fill:#b50938;fill-opacity:1;fill-rule:nonzero;stroke:none"
         id="path2426" />
      <path
         d="m -3.3543829,256.51657 v -0.004 c -1.2213037,-0.83259 -1.2213037,-0.83848 -2.0562851,-1.34252 -8.011295,-4.856 -12.151129,-5.42588 -16.034359,-4.12915 -3.018366,1.01027 -8.20924,5.11893 -8.20924,5.11893 -4.741108,3.16357 -9.536067,8.3915 -20.774361,7.78085 -10.463268,-0.56618 -32.00875,-6.16123 -32.26927,-6.23319 -0.260306,-0.0756 -0.531297,0.1186 -0.451074,0.42469 0.06128,0.23132 0.584279,1.37936 0.584279,1.37936 0.06602,0.1561 0.205146,0.19208 0.273599,0.22324 8.579866,3.44307 34.750031,13.03887 43.999409,13.03887 11.023556,0 20.144312,-15.30379 29.9502764,-15.30379 3.042358,0 3.8149912,0.10923 4.2503571,0.11273 0.433199,0.0373 0.7990169,-0.0935 0.9080275,-0.47505 0,0 0.1512948,-0.31785 -0.1713589,-0.59015 m -28.4425091,9.80945 c -0.123612,0.62156 -0.482242,1.15285 -1.004162,1.50189 -0.527799,0.35274 -1.155028,0.47155 -1.775272,0.35274 -0.619149,-0.12951 -1.150661,-0.48464 -1.49839,-1.00765 -0.723364,-1.08702 -0.427094,-2.55162 0.657303,-3.27498 1.083303,-0.71988 2.550524,-0.4236 3.271484,0.65731 0.349037,0.5254 0.472651,1.15524 0.349037,1.77069 m 5.939527,-3.1178 c -1.085706,0.72098 -2.550523,0.42231 -3.274982,-0.65751 -0.715081,-1.08811 -0.425988,-2.55511 0.657315,-3.27368 1.0846,-0.71747 2.551606,-0.42228 3.272578,0.65601 0.267493,0.3959 0.392201,0.85308 0.395902,1.29804 0,0.76652 -0.36953,1.51998 -1.050813,1.97714 m 7.948721,-6.12308 c -0.122305,0.61785 -0.480935,1.15525 -1.008745,1.4984 -0.524323,0.35383 -1.151756,0.47505 -1.768298,0.35035 -0.620243,-0.12361 -1.151755,-0.48355 -1.505589,-1.00417 -0.34555,-0.52671 -0.470258,-1.15394 -0.34555,-1.77178 0.124707,-0.61917 0.477446,-1.15307 1.010052,-1.49971 0.52192,-0.35035 1.148043,-0.47505 1.768288,-0.35035 0.616757,0.12253 1.150458,0.48116 1.500804,1.00657 0.349038,0.52323 0.47265,1.15176 0.349038,1.77069"
         style="fill:#ffffff;fill-opacity:1;fill-rule:nonzero;stroke:none;stroke-width:0.145341"
         id="path2442" />
    </g>
  </g>
</svg>
