<?xml version="1.0" encoding="UTF-8"?>
<svg id="Capa_1" xmlns="http://www.w3.org/2000/svg" version="1.1" xmlns:xlink="http://www.w3.org/1999/xlink" viewBox="0 0 800 800">
  <!-- Generator: Adobe Illustrator 29.2.1, SVG Export Plug-In . SVG Version: 2.1.0 Build 116)  -->
  <defs>
    <style>
      .st0 {
        fill: #fff;
      }
    </style>
  </defs>
  <path class="st0" d="M709.4,286.2h-19.2v-92.7c0-.6,0-1.2-.2-1.8,0-3.7-1.2-7.3-3.7-10.2L532.1,5.4s0,0-.1-.1c-.9-1-2-1.9-3.1-2.6-.3-.2-.7-.4-1-.6-1-.5-2-1-3.1-1.3-.3,0-.6-.2-.8-.3-1.2-.3-2.4-.4-3.6-.4H141.2c-17.3,0-31.4,14.1-31.4,31.4v254.8h-19.2c-24.8,0-44.8,20.1-44.8,44.8v233.2c0,24.7,20.1,44.8,44.8,44.8h19.2v159.6c0,17.3,14.1,31.4,31.4,31.4h517.6c17.3,0,31.4-14.1,31.4-31.4v-159.6h19.2c24.8,0,44.8-20.1,44.8-44.8v-233.2c0-24.8-20.1-44.8-44.8-44.8ZM141.2,31.4h363.4v160.5c0,8.7,7,15.7,15.7,15.7h138.6v78.6H141.2V31.4ZM459,459.1c-30.8-10.7-50.9-27.8-50.9-54.8s26.4-55.9,70.2-55.9,36.3,4.4,47.3,9.4l-9.4,33.9c-7.4-3.6-20.6-8.8-38.8-8.8s-27,8.3-27,17.9,10.5,17.1,34.4,26.1c32.8,12.1,48.2,29.2,48.2,55.3s-24,57.5-74.9,57.5-42.1-5.5-52.6-11.3l8.5-34.7c11.3,5.8,28.6,11.6,46.5,11.6s29.5-8,29.5-20.1c0-11.6-8.8-18.2-31.1-26.2ZM388,501.8v35.2h-115.9v-185.6h42.1v150.3h73.8ZM137.5,537h-47.9l53.7-93.9-51.8-91.7h48.2l16.2,33.9c5.5,11.3,9.6,20.4,14,30.8h.5c4.4-11.8,8-20.1,12.7-30.8l15.7-33.9h47.9l-52.3,90.6,55.1,95h-48.4l-16.8-33.6c-6.9-12.9-11.3-22.6-16.5-33.3h-.5c-3.9,10.7-8.5,20.4-14.3,33.3l-15.4,33.6ZM658.8,760.1H141.2v-151.1h517.6v151.1h0ZM659.1,537l-16.8-33.6c-6.9-12.9-11.3-22.6-16.5-33.3h-.5c-3.9,10.7-8.5,20.4-14.3,33.3l-15.4,33.6h-47.9l53.7-93.9-51.8-91.7h48.2l16.3,33.9c5.5,11.3,9.6,20.4,14,30.8h.6c4.4-11.8,8-20.1,12.7-30.8l15.7-33.9h47.9l-52.3,90.6,55.1,95h-48.4s0,0,0,0Z"/>
</svg>